# xmcd
#
# Track frame offsets:
#   150
#   10227
#   21462
#   28337
#   35940
#   46477
#   56285
#   70262
#   79667
#   90227
#   103525
#   113880
#   127510
#   138145
#   150172
#
# Disc length: 2095 seconds
#
# Revision: 0
# Processed by: cddbd v1.4PL0 Copyright (c) Steve Scherf et al.
# Submitted via: CD-Datenbank 4.*
#
DISCID=b3082d0f
DTITLE=Verschiedene - Country and Western disc 3
DYEAR=1999
DGENRE=Country
TTITLE0=K. Rogers - Where does Rosie go
TTITLE1=T. Wynette - D.I.V.O.R.C.E.
TTITLE2=W. Jennings - It's so easy
TTITLE3=D. Parton - Puppy love
TTITLE4=B. Willie - Wabash cannonball
TTITLE5=W. Nelson - Ashamed
TTITLE6=W. Guthrie - Pretty boy floyd
TTITLE7=C. Twitty - Ever since you went
TTITLE8=W. Nelson - Blame it on the times
TTITLE9=K. Rogers - Ruby don't take ...
TTITLE10=T. Wynette - Womanhood
TTITLE11=W. Guthrie - Blowing down this road
TTITLE12=W. Jennings - Burning memories
TTITLE13=D. Parton - Little Orphans
TTITLE14=W. Jennings - Treat me mean...
EXTD=
EXTT0=
EXTT1=
EXTT2=
EXTT3=
EXTT4=
EXTT5=
EXTT6=
EXTT7=
EXTT8=
EXTT9=
EXTT10=
EXTT11=
EXTT12=
EXTT13=
EXTT14=
PLAYORDER=
